<svg xmlns="http://www.w3.org/2000/svg" fill="none" viewBox="0 0 93 573">
  <path d="M92.27 27.25v54.974H0V27.251c0-.268 0-.535.013-.802.254-8.8 4.672-16.555 11.37-21.355A27.085 27.085 0 0127.233 0h37.789a27.054 27.054 0 0115.622 4.928A27.166 27.166 0 0192.27 27.251zm.19 431.686l-27.705 67.898-18.525 45.41-18.525-45.41L0 458.936l13.636 6.074s9.154-6.074 16.806-6.074c7.652 0 17.189 6.074 17.189 6.074s7.652-6.074 16.246-6.074c8.594 0 16.997 6.074 16.997 6.074s7.665-6.074 11.587-6.074z" fill="#EFEFEF"/>
  <path d="M64.768 526.835l-18.525 45.409-18.525-45.409a48.702 48.702 0 0118.525-3.63 48.702 48.702 0 0118.525 3.63z" fill="#382552"/>
  <path d="M92 51.718V458.87c-3.902 0-11.528 6.13-11.528 6.13s-.064-.053-.19-.12c-1.28-.891-8.92-6.01-16.723-6.01-8.552 0-16.165 6.13-16.165 6.13s-.507-.332-1.394-.838c-2.914-1.675-9.856-5.292-15.71-5.292-7.626 0-16.722 6.13-16.722 6.13l-1.862-.838L0 458.87V51.718c0-7.367 4.979-13.537 11.706-15.253A15.4 15.4 0 0115.48 36h61.025c1.305 0 2.572.16 3.775.465C87.021 38.181 92 44.351 92 51.718z" fill="#6941C6"/>
  <path d="M80.696 54.642v410.254c-1.286-.853-8.963-5.756-16.806-5.756-8.595 0-16.246 5.871-16.246 5.871s-.51-.319-1.401-.803V54.196h30.659c1.311 0 2.585.153 3.794.446zM12 45v419l-12-5.185V59.942C-.013 52.725 5.09 46.681 12 45z" fill="#382552"/>
</svg>
